HIERARCHY
ROOT Hips
{
    OFFSET 0.000000 0.000000 0.000000
    CHANNELS 6 Xposition Yposition Zposition Zrotation Xrotation Yrotation
    JOINT Spine
    {
        OFFSET -0.000000 7.236184 0.000000
        CHANNELS 3 Zrotation Xrotation Yrotation
        JOINT Spine1
        {
            OFFSET -0.000000 20.420147 0.000000
            CHANNELS 3 Zrotation Xrotation Yrotation
            JOINT Neck
            {
                OFFSET -0.000000 20.336288 1.848754
                CHANNELS 3 Zrotation Xrotation Yrotation
                JOINT Head
                {
                    OFFSET -0.000000 12.354461 -1.764923
                    CHANNELS 3 Zrotation Xrotation Yrotation
                    End Site
                    {
                        OFFSET -0.000000 22.061537 0.000000
                    }
                }
            }
            JOINT LeftShoulder
            {
                OFFSET 3.573296 18.396038 -0.314103
                CHANNELS 3 Zrotation Xrotation Yrotation
                JOINT LeftArm
                {
                    OFFSET 10.880760 0.000000 0.000000
                    CHANNELS 3 Zrotation Xrotation Yrotation
                    JOINT LeftForeArm
                    {
                        OFFSET 27.185530 0.000000 0.000000
                        CHANNELS 3 Zrotation Xrotation Yrotation
                        JOINT LeftHand
                        {
                            OFFSET 27.825975 0.000000 0.000000
                            CHANNELS 3 Zrotation Xrotation Yrotation
                            End Site
                            {
                                OFFSET 13.236923 0.000000 0.000000
                            }
                        }
                    }
                }
            }
            JOINT RightShoulder
            {
                OFFSET -3.474926 18.396038 -0.314103
                CHANNELS 3 Zrotation Xrotation Yrotation
                JOINT RightArm
                {
                    OFFSET -10.880760 0.000000 0.000000
                    CHANNELS 3 Zrotation Xrotation Yrotation
                    JOINT RightForeArm
                    {
                        OFFSET -27.185530 0.000000 0.000000
                        CHANNELS 3 Zrotation Xrotation Yrotation
                        JOINT RightHand
                        {
                            OFFSET -27.825975 0.000000 0.000000
                            CHANNELS 3 Zrotation Xrotation Yrotation
                            End Site
                            {
                                OFFSET -13.236923 0.000000 0.000000
                            }
                        }
                    }
                }
            }
        }
    }
    JOINT LeftUpLeg
    {
        OFFSET 8.824615 0.000000 0.000000
        CHANNELS 3 Zrotation Xrotation Yrotation
        JOINT LeftLeg
        {
            OFFSET -0.000000 -35.111282 0.000000
            CHANNELS 3 Zrotation Xrotation Yrotation
            JOINT LeftFoot
            {
                OFFSET -0.000000 -42.324711 0.000000
                CHANNELS 3 Zrotation Xrotation Yrotation
                JOINT LeftToeBase
                {
                    OFFSET -0.000000 -5.735999 13.236923
                    CHANNELS 3 Zrotation Xrotation Yrotation
                    End Site
                    {
                        OFFSET -0.000000 0.000000 3.529846
                    }
                }
            }
        }
    }
    JOINT RightUpLeg
    {
        OFFSET -8.824615 0.000000 0.000000
        CHANNELS 3 Zrotation Xrotation Yrotation
        JOINT RightLeg
        {
            OFFSET -0.000000 -35.111282 0.000000
            CHANNELS 3 Zrotation Xrotation Yrotation
            JOINT RightFoot
            {
                OFFSET -0.000000 -42.324711 0.000000
                CHANNELS 3 Zrotation Xrotation Yrotation
                JOINT RightToeBase
                {
                    OFFSET -0.000000 -5.735999 13.236923
                    CHANNELS 3 Zrotation Xrotation Yrotation
                    End Site
                    {
                        OFFSET -0.000000 0.000000 3.529846
                    }
                }
            }
        }
    }
}
MOTION
Frames:    4
Frame Time:    0.008333
-4.535582    61.423145    120.860687    8.532829    -32.826817    -169.442719    -2.958831    0.059153    0.436618    3.424243    5.546710    0.269176    4.285843    -6.647097    2.349071    1.859485    -39.901096    2.446867    36.451427    -28.427191    -7.967440    -17.570482    -0.285647    -71.322426    22.099163    2.704622    -17.508432    30.698244    1.635375    -16.335976    -32.433521    -14.474039    8.868911    11.625751    -11.359424    48.777828    -26.502729    -8.430995    36.674904    -6.965900    0.582782    -1.340028    103.890121    -78.392357    91.235664    -12.858444    74.012589    25.573444    -10.888467    -9.451163    -18.198442    -0.851507    -5.775166    0.954263    -50.619766    -84.130211    -42.167816    -3.883806    76.965004    10.735454    1.516671    -15.566029    -26.939667    0.969941    -4.957657    -1.056538    
-4.583331    61.933220    120.776459    8.475677    -32.615963    -169.348557    -2.936076    -0.277126    0.503411    3.382886    5.729791    0.341227    4.361876    -5.575182    1.956038    2.844931    -39.719372    2.533406    36.406540    -28.355066    -7.765689    -17.229122    0.259480    -71.565689    22.210567    2.020468    -18.335480    27.884388    1.640495    -16.046520    -32.293449    -14.301278    8.849913    11.336966    -10.786123    48.626667    -25.614853    -9.168666    36.772312    -5.333696    -0.461731    -1.520709    99.465149    -78.792763    87.059494    -11.318857    73.119904    24.338844    -10.842255    -9.255543    -18.316570    -0.822400    -5.857256    0.921795    -45.549870    -83.405571    -37.185951    -3.767455    75.981316    10.609081    1.536231    -15.329239    -26.888891    0.956266    -5.035697    -1.041765    
-4.634162    62.460201    120.687744    8.426122    -32.393421    -169.252853    -2.905112    -0.614866    0.567815    3.339579    5.902987    0.411180    4.459624    -4.453184    1.571051    3.850063    -39.463230    2.631741    36.352528    -28.283243    -7.573082    -16.912294    0.790082    -71.842842    22.275570    1.327735    -19.139317    25.063854    1.605229    -15.764221    -32.136982    -14.114064    8.833334    11.050958    -10.194266    48.483780    -24.732206    -9.931136    36.880779    -3.712369    -1.536283    -1.614739    94.608795    -79.126724    82.457260    -9.864727    72.195747    23.171778    -10.783335    -9.071877    -18.415609    -0.792371    -5.946333    0.888296    -41.396259    -82.603386    -33.135296    -3.613246    74.954811    10.451530    1.524899    -15.072286    -26.832952    0.941699    -5.118856    -1.026023    
-4.687774    62.999893    120.594879    8.385847    -32.161442    -169.155746    -2.865811    -0.949978    0.629950    3.294315    6.057923    0.479460    4.592103    -3.285491    1.201377    4.840333    -39.131844    2.729157    36.286148    -28.208935    -7.403174    -16.629925    1.297870    -72.152412    22.288971    0.642298    -19.900534    22.256102    1.533253    -15.512543    -31.954212    -13.907895    8.821253    10.762603    -9.585940    48.355515    -23.869350    -10.707257    36.996689    -2.107170    -2.622175    -1.623443    89.390610    -79.377693    77.496323    -8.500868    71.247986    22.065575    -10.711151    -8.906308    -18.486645    -0.760866    -6.039427    0.853137    -37.997692    -81.739388    -29.854462    -3.430420    73.891403    10.270635    1.544513    -14.819162    -26.754271    0.925180    -5.221539    -1.008180    
